<mxfile host="Electron" modified="2023-12-08T03:28:48.470Z" agent="Mozilla/5.0 (Windows NT 10.0; Win64; x64) AppleWebKit/537.36 (KHTML, like Gecko) draw.io/22.1.2 Chrome/114.0.5735.289 Electron/25.9.4 Safari/537.36" etag="cVkZSoLbjl1lwqL8TNZJ" version="22.1.2" type="device">
  <diagram id="R2lEEEUBdFMjLlhIrx00" name="Page-1">
    <mxGraphModel dx="975" dy="1838" grid="1" gridSize="10" guides="1" tooltips="1" connect="1" arrows="0" fold="1" page="1" pageScale="1" pageWidth="850" pageHeight="1100" math="0" shadow="0" extFonts="Permanent Marker^https://fonts.googleapis.com/css?family=Permanent+Marker">
      <root>
        <mxCell id="0" />
        <mxCell id="1" parent="0" />
        <mxCell id="Pa5k9DusvXl9ULIlLwVV-54" value="User" style="swimlane;childLayout=stackLayout;horizontal=1;startSize=50;horizontalStack=0;rounded=1;fontSize=14;fontStyle=0;strokeWidth=2;resizeParent=0;resizeLast=1;shadow=0;dashed=0;align=center;arcSize=4;whiteSpace=wrap;html=1;fillColor=#6a00ff;fontColor=#ffffff;strokeColor=#3700CC;" parent="1" vertex="1">
          <mxGeometry x="320" y="-220" width="120" height="300" as="geometry" />
        </mxCell>
        <mxCell id="Pa5k9DusvXl9ULIlLwVV-55" value="UserID (PK)&lt;br&gt;Username&lt;br&gt;Email&lt;br&gt;Password&lt;br&gt;DateOfBirth&lt;br&gt;Gender&lt;br&gt;LocationID&lt;br&gt;ProfilePicture&lt;br&gt;Pictures&lt;br&gt;Bio&lt;br&gt;RegistrationDate&lt;br&gt;Height&lt;br&gt;Hobbies&lt;br&gt;Ethnicity&lt;br&gt;Smoking&lt;br&gt;Drinking&lt;br&gt;Religion" style="align=left;strokeColor=none;fillColor=none;spacingLeft=4;fontSize=12;verticalAlign=top;resizable=0;rotatable=0;part=1;html=1;" parent="Pa5k9DusvXl9ULIlLwVV-54" vertex="1">
          <mxGeometry y="50" width="120" height="250" as="geometry" />
        </mxCell>
        <mxCell id="Pa5k9DusvXl9ULIlLwVV-57" value="Match" style="swimlane;childLayout=stackLayout;horizontal=1;startSize=50;horizontalStack=0;rounded=1;fontSize=14;fontStyle=0;strokeWidth=2;resizeParent=0;resizeLast=1;shadow=0;dashed=0;align=center;arcSize=4;whiteSpace=wrap;html=1;fillColor=#a20025;fontColor=#ffffff;strokeColor=#6F0000;" parent="1" vertex="1">
          <mxGeometry x="570" y="-140" width="160" height="140" as="geometry" />
        </mxCell>
        <mxCell id="Pa5k9DusvXl9ULIlLwVV-58" value="MatchID (PK)&lt;br&gt;UserID (FK)&lt;br&gt;User2ID (FK)&lt;br&gt;MatchDate&lt;br&gt;MatchStatus" style="align=left;strokeColor=none;fillColor=none;spacingLeft=4;fontSize=12;verticalAlign=top;resizable=0;rotatable=0;part=1;html=1;" parent="Pa5k9DusvXl9ULIlLwVV-57" vertex="1">
          <mxGeometry y="50" width="160" height="90" as="geometry" />
        </mxCell>
        <mxCell id="Pa5k9DusvXl9ULIlLwVV-59" value="Message" style="swimlane;childLayout=stackLayout;horizontal=1;startSize=50;horizontalStack=0;rounded=1;fontSize=14;fontStyle=0;strokeWidth=2;resizeParent=0;resizeLast=1;shadow=0;dashed=0;align=center;arcSize=4;whiteSpace=wrap;html=1;fillColor=#008a00;fontColor=#ffffff;strokeColor=#005700;" parent="1" vertex="1">
          <mxGeometry x="40" y="-80" width="160" height="160" as="geometry" />
        </mxCell>
        <mxCell id="Pa5k9DusvXl9ULIlLwVV-60" value="MessageID (PK)&lt;br&gt;SenderID (FK)&lt;br&gt;ReceiverID (FK)&lt;br&gt;MessageText&lt;br&gt;Timestamp&lt;br&gt;Status" style="align=left;strokeColor=none;fillColor=none;spacingLeft=4;fontSize=12;verticalAlign=top;resizable=0;rotatable=0;part=1;html=1;" parent="Pa5k9DusvXl9ULIlLwVV-59" vertex="1">
          <mxGeometry y="50" width="160" height="110" as="geometry" />
        </mxCell>
        <mxCell id="Pa5k9DusvXl9ULIlLwVV-61" value="Photo" style="swimlane;childLayout=stackLayout;horizontal=1;startSize=50;horizontalStack=0;rounded=1;fontSize=14;fontStyle=0;strokeWidth=2;resizeParent=0;resizeLast=1;shadow=0;dashed=0;align=center;arcSize=4;whiteSpace=wrap;html=1;fillColor=#008a00;fontColor=#ffffff;strokeColor=#005700;" parent="1" vertex="1">
          <mxGeometry x="540" y="-320" width="160" height="120" as="geometry" />
        </mxCell>
        <mxCell id="Pa5k9DusvXl9ULIlLwVV-62" value="PhotoID (PK)&lt;br&gt;UserID (FK)&lt;br&gt;ImageURL&lt;br&gt;UploadDate" style="align=left;strokeColor=none;fillColor=none;spacingLeft=4;fontSize=12;verticalAlign=top;resizable=0;rotatable=0;part=1;html=1;" parent="Pa5k9DusvXl9ULIlLwVV-61" vertex="1">
          <mxGeometry y="50" width="160" height="70" as="geometry" />
        </mxCell>
        <mxCell id="ofby_3PSYnQs6wLy6_GR-4" value="1..1" style="edgeStyle=entityRelationEdgeStyle;fontSize=12;html=1;endArrow=ERoneToMany;rounded=0;entryX=0;entryY=0.25;entryDx=0;entryDy=0;exitX=1;exitY=0.25;exitDx=0;exitDy=0;" parent="1" source="Pa5k9DusvXl9ULIlLwVV-55" target="Pa5k9DusvXl9ULIlLwVV-62" edge="1">
          <mxGeometry x="-0.8099" y="13" width="100" height="100" relative="1" as="geometry">
            <mxPoint x="300" y="310" as="sourcePoint" />
            <mxPoint x="400" y="210" as="targetPoint" />
            <mxPoint as="offset" />
          </mxGeometry>
        </mxCell>
        <mxCell id="ykWjusczUzoiTo8yQNu4-33" value="1..1" style="edgeLabel;html=1;align=center;verticalAlign=middle;resizable=0;points=[];" vertex="1" connectable="0" parent="ofby_3PSYnQs6wLy6_GR-4">
          <mxGeometry x="0.7835" y="-1" relative="1" as="geometry">
            <mxPoint y="-18" as="offset" />
          </mxGeometry>
        </mxCell>
        <mxCell id="ofby_3PSYnQs6wLy6_GR-5" value="1..*" style="edgeStyle=entityRelationEdgeStyle;fontSize=12;html=1;endArrow=ERmany;startArrow=ERmany;rounded=0;exitX=1;exitY=0.5;exitDx=0;exitDy=0;entryX=0;entryY=0.25;entryDx=0;entryDy=0;" parent="1" source="Pa5k9DusvXl9ULIlLwVV-55" target="Pa5k9DusvXl9ULIlLwVV-58" edge="1">
          <mxGeometry x="0.7004" y="-17" width="100" height="100" relative="1" as="geometry">
            <mxPoint x="300" y="310" as="sourcePoint" />
            <mxPoint x="400" y="210" as="targetPoint" />
            <mxPoint as="offset" />
          </mxGeometry>
        </mxCell>
        <mxCell id="ykWjusczUzoiTo8yQNu4-32" value="0..*" style="edgeLabel;html=1;align=center;verticalAlign=middle;resizable=0;points=[];" vertex="1" connectable="0" parent="ofby_3PSYnQs6wLy6_GR-5">
          <mxGeometry x="-0.767" y="-1" relative="1" as="geometry">
            <mxPoint y="14" as="offset" />
          </mxGeometry>
        </mxCell>
        <mxCell id="ofby_3PSYnQs6wLy6_GR-6" value="" style="edgeStyle=entityRelationEdgeStyle;fontSize=12;html=1;endArrow=ERmany;startArrow=ERmany;rounded=0;entryX=0.5;entryY=0;entryDx=0;entryDy=0;" parent="1" target="ofby_3PSYnQs6wLy6_GR-18" edge="1">
          <mxGeometry width="100" height="100" relative="1" as="geometry">
            <mxPoint x="380" y="80" as="sourcePoint" />
            <mxPoint x="330" y="263" as="targetPoint" />
          </mxGeometry>
        </mxCell>
        <mxCell id="ofby_3PSYnQs6wLy6_GR-14" value="0..*" style="edgeStyle=entityRelationEdgeStyle;fontSize=12;html=1;endArrow=ERmany;startArrow=ERmany;rounded=0;entryX=0;entryY=0.75;entryDx=0;entryDy=0;exitX=1;exitY=0;exitDx=0;exitDy=0;" parent="1" source="Pa5k9DusvXl9ULIlLwVV-60" target="Pa5k9DusvXl9ULIlLwVV-55" edge="1">
          <mxGeometry x="0.707" y="18" width="100" height="100" relative="1" as="geometry">
            <mxPoint x="350" y="370" as="sourcePoint" />
            <mxPoint x="450" y="270" as="targetPoint" />
            <mxPoint as="offset" />
          </mxGeometry>
        </mxCell>
        <mxCell id="ykWjusczUzoiTo8yQNu4-36" value="1..*" style="edgeLabel;html=1;align=center;verticalAlign=middle;resizable=0;points=[];" vertex="1" connectable="0" parent="ofby_3PSYnQs6wLy6_GR-14">
          <mxGeometry x="-0.7355" relative="1" as="geometry">
            <mxPoint x="2" y="-20" as="offset" />
          </mxGeometry>
        </mxCell>
        <mxCell id="ofby_3PSYnQs6wLy6_GR-18" value="Like" style="swimlane;childLayout=stackLayout;horizontal=1;startSize=50;horizontalStack=0;rounded=1;fontSize=14;fontStyle=0;strokeWidth=2;resizeParent=0;resizeLast=1;shadow=0;dashed=0;align=center;arcSize=4;whiteSpace=wrap;html=1;fillColor=#a20025;fontColor=#ffffff;strokeColor=#6F0000;" parent="1" vertex="1">
          <mxGeometry x="340" y="210" width="160" height="140" as="geometry" />
        </mxCell>
        <mxCell id="ofby_3PSYnQs6wLy6_GR-19" value="LikeID (PK)&lt;br&gt;SenderID (FK)&lt;br&gt;ReceiverID (FK)&lt;br&gt;LikeDate" style="align=left;strokeColor=none;fillColor=none;spacingLeft=4;fontSize=12;verticalAlign=top;resizable=0;rotatable=0;part=1;html=1;" parent="ofby_3PSYnQs6wLy6_GR-18" vertex="1">
          <mxGeometry y="50" width="160" height="90" as="geometry" />
        </mxCell>
        <mxCell id="ofby_3PSYnQs6wLy6_GR-22" value="0..1" style="edgeStyle=entityRelationEdgeStyle;fontSize=12;html=1;endArrow=ERoneToMany;rounded=0;exitX=0.5;exitY=1;exitDx=0;exitDy=0;entryX=0.75;entryY=0;entryDx=0;entryDy=0;" parent="1" source="Pa5k9DusvXl9ULIlLwVV-58" target="ofby_3PSYnQs6wLy6_GR-18" edge="1">
          <mxGeometry x="0.9348" y="-20" width="100" height="100" relative="1" as="geometry">
            <mxPoint x="390" y="390" as="sourcePoint" />
            <mxPoint x="450" y="270" as="targetPoint" />
            <Array as="points">
              <mxPoint x="520" y="410" />
              <mxPoint x="410" y="410" />
              <mxPoint x="420" y="390" />
            </Array>
            <mxPoint as="offset" />
          </mxGeometry>
        </mxCell>
        <mxCell id="ykWjusczUzoiTo8yQNu4-34" value="1..*" style="edgeLabel;html=1;align=center;verticalAlign=middle;resizable=0;points=[];" vertex="1" connectable="0" parent="ofby_3PSYnQs6wLy6_GR-22">
          <mxGeometry x="-0.6396" y="-2" relative="1" as="geometry">
            <mxPoint x="-25" y="10" as="offset" />
          </mxGeometry>
        </mxCell>
        <mxCell id="ykWjusczUzoiTo8yQNu4-1" value="Preference" style="swimlane;childLayout=stackLayout;horizontal=1;startSize=50;horizontalStack=0;rounded=1;fontSize=14;fontStyle=0;strokeWidth=2;resizeParent=0;resizeLast=1;shadow=0;dashed=0;align=center;arcSize=4;whiteSpace=wrap;html=1;fillColor=#008a00;fontColor=#ffffff;strokeColor=#005700;" vertex="1" parent="1">
          <mxGeometry x="80" y="-290" width="160" height="140" as="geometry" />
        </mxCell>
        <mxCell id="ykWjusczUzoiTo8yQNu4-2" value="PreferenceID (PK)&lt;br&gt;UserID (FK)&lt;br&gt;AgeStart&lt;br&gt;AgeEnd&lt;br&gt;Gender" style="align=left;strokeColor=none;fillColor=none;spacingLeft=4;fontSize=12;verticalAlign=top;resizable=0;rotatable=0;part=1;html=1;" vertex="1" parent="ykWjusczUzoiTo8yQNu4-1">
          <mxGeometry y="50" width="160" height="90" as="geometry" />
        </mxCell>
        <mxCell id="ykWjusczUzoiTo8yQNu4-7" value="Location" style="swimlane;childLayout=stackLayout;horizontal=1;startSize=50;horizontalStack=0;rounded=1;fontSize=14;fontStyle=0;strokeWidth=2;resizeParent=0;resizeLast=1;shadow=0;dashed=0;align=center;arcSize=4;whiteSpace=wrap;html=1;fillColor=#008a00;fontColor=#ffffff;strokeColor=#005700;" vertex="1" parent="1">
          <mxGeometry x="60" y="170" width="160" height="120" as="geometry" />
        </mxCell>
        <mxCell id="ykWjusczUzoiTo8yQNu4-8" value="LocationID (PK)&lt;br&gt;City&lt;br&gt;Country" style="align=left;strokeColor=none;fillColor=none;spacingLeft=4;fontSize=12;verticalAlign=top;resizable=0;rotatable=0;part=1;html=1;" vertex="1" parent="ykWjusczUzoiTo8yQNu4-7">
          <mxGeometry y="50" width="160" height="70" as="geometry" />
        </mxCell>
        <mxCell id="ykWjusczUzoiTo8yQNu4-30" value="" style="edgeStyle=entityRelationEdgeStyle;fontSize=12;html=1;endArrow=ERoneToMany;rounded=0;entryX=0;entryY=0.25;entryDx=0;entryDy=0;exitX=1;exitY=0.5;exitDx=0;exitDy=0;" edge="1" parent="1" source="ykWjusczUzoiTo8yQNu4-2" target="Pa5k9DusvXl9ULIlLwVV-55">
          <mxGeometry width="100" height="100" relative="1" as="geometry">
            <mxPoint x="370" y="10" as="sourcePoint" />
            <mxPoint x="470" y="-90" as="targetPoint" />
          </mxGeometry>
        </mxCell>
        <mxCell id="ykWjusczUzoiTo8yQNu4-37" value="1..1" style="edgeLabel;html=1;align=center;verticalAlign=middle;resizable=0;points=[];" vertex="1" connectable="0" parent="ykWjusczUzoiTo8yQNu4-30">
          <mxGeometry x="-0.8479" y="-1" relative="1" as="geometry">
            <mxPoint x="8" y="-16" as="offset" />
          </mxGeometry>
        </mxCell>
        <mxCell id="ykWjusczUzoiTo8yQNu4-38" value="0..1" style="edgeLabel;html=1;align=center;verticalAlign=middle;resizable=0;points=[];" vertex="1" connectable="0" parent="ykWjusczUzoiTo8yQNu4-30">
          <mxGeometry x="0.7848" y="-1" relative="1" as="geometry">
            <mxPoint x="-4" y="17" as="offset" />
          </mxGeometry>
        </mxCell>
        <mxCell id="ykWjusczUzoiTo8yQNu4-31" value="0..*" style="edgeStyle=entityRelationEdgeStyle;fontSize=12;html=1;endArrow=ERoneToMany;rounded=0;entryX=0.5;entryY=0;entryDx=0;entryDy=0;exitX=-0.013;exitY=0.918;exitDx=0;exitDy=0;exitPerimeter=0;" edge="1" parent="1" source="Pa5k9DusvXl9ULIlLwVV-55" target="ykWjusczUzoiTo8yQNu4-7">
          <mxGeometry x="0.8198" y="-20" width="100" height="100" relative="1" as="geometry">
            <mxPoint x="260" y="200" as="sourcePoint" />
            <mxPoint x="360" y="100" as="targetPoint" />
            <mxPoint as="offset" />
          </mxGeometry>
        </mxCell>
        <mxCell id="ykWjusczUzoiTo8yQNu4-35" value="1..1" style="edgeLabel;html=1;align=center;verticalAlign=middle;resizable=0;points=[];" vertex="1" connectable="0" parent="ykWjusczUzoiTo8yQNu4-31">
          <mxGeometry x="-0.722" y="-2" relative="1" as="geometry">
            <mxPoint x="14" y="21" as="offset" />
          </mxGeometry>
        </mxCell>
      </root>
    </mxGraphModel>
  </diagram>
</mxfile>
